<mxfile host="app.diagrams.net" modified="2022-09-27T04:21:46.722Z" agent="5.0 (Macintosh; Intel Mac OS X 10_15_7) AppleWebKit/537.36 (KHTML, like Gecko) Chrome/105.0.0.0 Safari/537.36" etag="qevbGOkfxBfT2XLVeExb" version="20.3.6" type="github" pages="2">
  <diagram id="wr33GbmxHSaGCB-L21ZP" name="Page-1">
    <mxGraphModel dx="883" dy="677" grid="1" gridSize="10" guides="1" tooltips="1" connect="1" arrows="1" fold="1" page="1" pageScale="1" pageWidth="827" pageHeight="1169" math="0" shadow="0">
      <root>
        <mxCell id="0" />
        <mxCell id="1" parent="0" />
        <mxCell id="pd32sMHFfhZpREY5Rkp3-1" value="Firestore" style="sketch=0;html=1;verticalAlign=top;labelPosition=center;verticalLabelPosition=bottom;align=center;spacingTop=-6;fontSize=11;fontStyle=1;fontColor=#999999;shape=image;aspect=fixed;imageAspect=0;image=data:image/svg+xml,PHN2ZyB4bWxucz0iaHR0cDovL3d3dy53My5vcmcvMjAwMC9zdmciIHhtbG5zOnY9Imh0dHBzOi8vdmVjdGEuaW8vbmFubyIgd2lkdGg9IjMyMy45MDU2MTAzOTg2NzUxNSIgaGVpZ2h0PSIzNzYuNDIyMjk0OTYzNjg0MDciIHZpZXdCb3g9Ii0wLjA5NzAwMDAwMjg2MTAyMjk1IDAuMjg3OTk5OTg3NjAyMjMzOSA4NS42OTk5OTY5NDgyNDIxOSA5OS41OTUwMDEyMjA3MDMxMiI+JiN4YTs8c3R5bGUgdHlwZT0idGV4dC9jc3MiPiYjeGE7CS5zdDB7ZmlsbDojYWVjYmZhO30mI3hhOwkuc3Qxe2ZpbGw6IzY2OWRmNjt9JiN4YTsJLnN0MntmaWxsOiM0Mjg1ZjQ7fSYjeGE7PC9zdHlsZT4mI3hhOwk8cGF0aCBjbGFzcz0ic3QwIiBkPSJNLS4wOTcgNzUuODE1VjU1Ljg3NGw0Mi44NS0yMC4xODN2MTkuMDd6bTAtMzUuNDAzVjIwLjQ3MUw0Mi43NTMuMjg4djE5LjA3eiIvPiYjeGE7CTxwYXRoIGNsYXNzPSJzdDEiIGQ9Ik04NS42MDMgNzUuODE1VjU1Ljg3NGwtNDIuODUtMjAuMTgzdjE5LjA3em0wLTM1LjQwM1YyMC40NzFMNDIuNzUzLjI4OHYxOS4wN3oiLz4mI3hhOwk8cGF0aCBjbGFzcz0ic3QyIiBkPSJNNDIuNzUzIDgwLjMxNGwxNi4yMTctNy41MjUgMjEuMDg0IDkuNzE3LTM3LjMwMSAxNy4zNzd6Ii8+JiN4YTs8L3N2Zz4=;" parent="1" vertex="1">
          <mxGeometry x="210.00000000000006" y="260" width="42.86" height="50" as="geometry" />
        </mxCell>
        <mxCell id="pd32sMHFfhZpREY5Rkp3-7" style="edgeStyle=orthogonalEdgeStyle;rounded=0;orthogonalLoop=1;jettySize=auto;html=1;entryX=0.5;entryY=1;entryDx=0;entryDy=0;" parent="1" source="pd32sMHFfhZpREY5Rkp3-4" target="pd32sMHFfhZpREY5Rkp3-5" edge="1">
          <mxGeometry relative="1" as="geometry" />
        </mxCell>
        <mxCell id="pd32sMHFfhZpREY5Rkp3-4" value="Cloud&#xa;Functions" style="sketch=0;html=1;verticalAlign=top;labelPosition=center;verticalLabelPosition=bottom;align=center;spacingTop=-6;fontSize=11;fontStyle=1;fontColor=#999999;shape=image;aspect=fixed;imageAspect=0;image=data:image/svg+xml,PHN2ZyB4bWxucz0iaHR0cDovL3d3dy53My5vcmcvMjAwMC9zdmciIHhtbG5zOnY9Imh0dHBzOi8vdmVjdGEuaW8vbmFubyIgd2lkdGg9IjIwIiBoZWlnaHQ9IjE5Ljk4OTk5OTc3MTExODE2NCIgdmlld0JveD0iMCAwIDIwIDE5Ljk4OTk5OTc3MTExODE2NCI+JiN4YTsJPHN0eWxlIHR5cGU9InRleHQvY3NzIj4mI3hhOwkuc3Qwe2ZpbGw6IzQyODVmNDt9JiN4YTsJLnN0MXtmaWxsOiM2NjlkZjY7fSYjeGE7CS5zdDJ7ZmlsbDojYWVjYmZhO30mI3hhOwk8L3N0eWxlPiYjeGE7CTxwYXRoIGNsYXNzPSJzdDEiIGQ9Ik0zIDMuOTlMMCA2LjQydjcuMTNsMyAyLjQ0eiIvPiYjeGE7CTxwYXRoIGNsYXNzPSJzdDAiIGQ9Ik0zIDMuOTlsLTMgNCAzLTJ6bS0zIDhsMyA0di0yeiIvPiYjeGE7CTxwYXRoIGNsYXNzPSJzdDIiIGQ9Ik0wIDE1Ljk5bDQgNCAyLTItNi02em0uMDEtOEw1Ljk5IDJsLTItMkwwIDMuOTl6Ii8+JiN4YTsJPHBhdGggY2xhc3M9InN0MSIgZD0iTTE3IDE2bDMtMi40MlY2LjQ0TDE3IDR6Ii8+JiN4YTsJPHBhdGggY2xhc3M9InN0MCIgZD0iTTE3IDE2bDMtNC0zIDJ6bTMtOGwtMy00djJ6Ii8+JiN4YTsJPGcgY2xhc3M9InN0MiI+JiN4YTsJCTxwYXRoIGQ9Ik0yMCA0bC00LTQtMiAyIDYgNnptLS4wMSA4bC01Ljk4IDUuOTkgMiAyTDIwIDE2eiIvPiYjeGE7CQk8Y2lyY2xlIGN4PSI2IiBjeT0iOS45OSIgcj0iMSIvPiYjeGE7CQk8Y2lyY2xlIGN4PSIxMCIgY3k9IjkuOTkiIHI9IjEiLz4mI3hhOwkJPGNpcmNsZSBjeD0iMTMuOTkiIGN5PSI5Ljk5IiByPSIxIi8+JiN4YTsJPC9nPiYjeGE7PC9zdmc+;" parent="1" vertex="1">
          <mxGeometry x="340" y="90" width="61.77" height="50" as="geometry" />
        </mxCell>
        <mxCell id="pd32sMHFfhZpREY5Rkp3-5" value="grubbe.co" style="rounded=0;whiteSpace=wrap;html=1;" parent="1" vertex="1">
          <mxGeometry x="480" y="20" width="90" height="30" as="geometry" />
        </mxCell>
        <mxCell id="pd32sMHFfhZpREY5Rkp3-11" style="edgeStyle=orthogonalEdgeStyle;rounded=0;orthogonalLoop=1;jettySize=auto;html=1;exitX=1;exitY=0;exitDx=0;exitDy=0;entryX=0;entryY=0;entryDx=0;entryDy=0;" parent="1" source="pd32sMHFfhZpREY5Rkp3-8" target="pd32sMHFfhZpREY5Rkp3-4" edge="1">
          <mxGeometry relative="1" as="geometry" />
        </mxCell>
        <mxCell id="pd32sMHFfhZpREY5Rkp3-13" style="edgeStyle=orthogonalEdgeStyle;rounded=0;orthogonalLoop=1;jettySize=auto;html=1;exitX=1;exitY=1;exitDx=0;exitDy=0;entryX=0;entryY=0.25;entryDx=0;entryDy=0;" parent="1" source="pd32sMHFfhZpREY5Rkp3-8" target="pd32sMHFfhZpREY5Rkp3-1" edge="1">
          <mxGeometry relative="1" as="geometry" />
        </mxCell>
        <mxCell id="pd32sMHFfhZpREY5Rkp3-8" value="" style="shape=image;html=1;verticalAlign=top;verticalLabelPosition=bottom;labelBackgroundColor=#ffffff;imageAspect=0;aspect=fixed;image=https://cdn3.iconfinder.com/data/icons/strokeline/128/revisi_01-128.png;dashed=0;fontFamily=Helvetica;fontSize=12;fontColor=default;align=center;strokeColor=#ffffff;fillColor=#2875E2;sketch=0;" parent="1" vertex="1">
          <mxGeometry x="20" y="145.32999999999998" width="50" height="48" as="geometry" />
        </mxCell>
        <mxCell id="pd32sMHFfhZpREY5Rkp3-10" style="edgeStyle=orthogonalEdgeStyle;rounded=0;orthogonalLoop=1;jettySize=auto;html=1;" parent="1" source="pd32sMHFfhZpREY5Rkp3-9" target="pd32sMHFfhZpREY5Rkp3-8" edge="1">
          <mxGeometry relative="1" as="geometry" />
        </mxCell>
        <mxCell id="pd32sMHFfhZpREY5Rkp3-9" value="" style="sketch=0;html=1;dashed=0;whitespace=wrap;fillColor=#2875E2;strokeColor=#ffffff;points=[[0.005,0.63,0],[0.1,0.2,0],[0.9,0.2,0],[0.5,0,0],[0.995,0.63,0],[0.72,0.99,0],[0.5,1,0],[0.28,0.99,0]];shape=mxgraph.kubernetes.icon;prIcon=user" parent="1" vertex="1">
          <mxGeometry x="20" y="360" width="50" height="48" as="geometry" />
        </mxCell>
        <mxCell id="pd32sMHFfhZpREY5Rkp3-28" value="" style="shape=datastore;whiteSpace=wrap;html=1;" parent="1" vertex="1">
          <mxGeometry x="550" y="40" width="30" height="30" as="geometry" />
        </mxCell>
        <mxCell id="pd32sMHFfhZpREY5Rkp3-30" value="- Datos personales de los usuarios&lt;br&gt;- Dominios&lt;br&gt;- Servidores&amp;nbsp;" style="text;html=1;align=left;verticalAlign=middle;resizable=0;points=[];autosize=1;strokeColor=none;fillColor=none;" parent="1" vertex="1">
          <mxGeometry x="590" y="30" width="210" height="60" as="geometry" />
        </mxCell>
        <mxCell id="pd32sMHFfhZpREY5Rkp3-32" value="- InformaciÃ³n del proyecto" style="text;html=1;align=left;verticalAlign=middle;resizable=0;points=[];autosize=1;strokeColor=none;fillColor=none;" parent="1" vertex="1">
          <mxGeometry x="264" y="260" width="160" height="30" as="geometry" />
        </mxCell>
      </root>
    </mxGraphModel>
  </diagram>
  <diagram id="lNfLyngPM6GWzWaZktHX" name="Diagrama Firestore">
    <mxGraphModel dx="883" dy="677" grid="1" gridSize="10" guides="1" tooltips="1" connect="1" arrows="1" fold="1" page="1" pageScale="1" pageWidth="827" pageHeight="1169" math="0" shadow="0">
      <root>
        <mxCell id="0" />
        <mxCell id="1" parent="0" />
        <mxCell id="d5y40cW3fXQddjaG7Fc6-7" value="" style="group" parent="1" vertex="1" connectable="0">
          <mxGeometry x="233" y="20" width="361" height="60" as="geometry" />
        </mxCell>
        <mxCell id="d5y40cW3fXQddjaG7Fc6-1" value="" style="endArrow=none;html=1;rounded=0;strokeWidth=2;strokeColor=#BDBDBD;" parent="d5y40cW3fXQddjaG7Fc6-7" edge="1">
          <mxGeometry width="50" height="50" relative="1" as="geometry">
            <mxPoint y="32" as="sourcePoint" />
            <mxPoint x="361" y="32" as="targetPoint" />
          </mxGeometry>
        </mxCell>
        <mxCell id="d5y40cW3fXQddjaG7Fc6-2" value="Diagrama ER - Base de datos Firestore" style="text;html=1;align=center;verticalAlign=middle;resizable=0;points=[];autosize=1;strokeColor=none;fillColor=none;fontFamily=urbanist;fontSource=https%3A%2F%2Ffonts.googleapis.com%2Fcss%3Ffamily%3Durbanist;fontColor=#A1A1A1;fontSize=16;" parent="d5y40cW3fXQddjaG7Fc6-7" vertex="1">
          <mxGeometry x="36" width="290" height="30" as="geometry" />
        </mxCell>
        <mxCell id="d5y40cW3fXQddjaG7Fc6-3" value="grubbe.io" style="text;html=1;align=center;verticalAlign=middle;resizable=0;points=[];autosize=1;strokeColor=none;fillColor=none;fontSize=12;fontColor=#A1A1A1;fontFamily=urbanist;fontSource=https%3A%2F%2Ffonts.googleapis.com%2Fcss%3Ffamily%3Durbanist;" parent="d5y40cW3fXQddjaG7Fc6-7" vertex="1">
          <mxGeometry x="111" y="30" width="70" height="30" as="geometry" />
        </mxCell>
        <mxCell id="d5y40cW3fXQddjaG7Fc6-4" value="" style="endArrow=none;html=1;rounded=0;strokeColor=#BDBDBD;strokeWidth=1;fontSize=12;fontColor=#A1A1A1;" parent="d5y40cW3fXQddjaG7Fc6-7" edge="1">
          <mxGeometry width="50" height="50" relative="1" as="geometry">
            <mxPoint x="180" y="55.5" as="sourcePoint" />
            <mxPoint x="180" y="38.5" as="targetPoint" />
          </mxGeometry>
        </mxCell>
        <mxCell id="d5y40cW3fXQddjaG7Fc6-6" value="2022" style="text;html=1;align=center;verticalAlign=middle;resizable=0;points=[];autosize=1;strokeColor=none;fillColor=none;fontSize=12;fontColor=#A1A1A1;fontFamily=urbanist;fontSource=https%3A%2F%2Ffonts.googleapis.com%2Fcss%3Ffamily%3Durbanist;" parent="d5y40cW3fXQddjaG7Fc6-7" vertex="1">
          <mxGeometry x="181" y="30" width="50" height="30" as="geometry" />
        </mxCell>
        <mxCell id="d5y40cW3fXQddjaG7Fc6-13" value="Project" style="swimlane;fontStyle=1;align=center;verticalAlign=top;childLayout=stackLayout;horizontal=1;startSize=26;horizontalStack=0;resizeParent=1;resizeParentMax=0;resizeLast=0;collapsible=1;marginBottom=0;fontFamily=urbanist;fontSource=https%3A%2F%2Ffonts.googleapis.com%2Fcss%3Ffamily%3Durbanist;fontSize=12;fontColor=#A1A1A1;" parent="1" vertex="1">
          <mxGeometry x="80" y="180" width="170" height="90" as="geometry" />
        </mxCell>
        <mxCell id="d5y40cW3fXQddjaG7Fc6-14" value="+ name: string" style="text;strokeColor=none;fillColor=none;align=left;verticalAlign=top;spacingLeft=4;spacingRight=4;overflow=hidden;rotatable=0;points=[[0,0.5],[1,0.5]];portConstraint=eastwest;fontFamily=urbanist;fontSource=https%3A%2F%2Ffonts.googleapis.com%2Fcss%3Ffamily%3Durbanist;fontSize=12;fontColor=#A1A1A1;" parent="d5y40cW3fXQddjaG7Fc6-13" vertex="1">
          <mxGeometry y="26" width="170" height="26" as="geometry" />
        </mxCell>
        <mxCell id="d5y40cW3fXQddjaG7Fc6-15" value="" style="line;strokeWidth=1;fillColor=none;align=left;verticalAlign=middle;spacingTop=-1;spacingLeft=3;spacingRight=3;rotatable=0;labelPosition=right;points=[];portConstraint=eastwest;strokeColor=inherit;fontFamily=urbanist;fontSource=https%3A%2F%2Ffonts.googleapis.com%2Fcss%3Ffamily%3Durbanist;fontSize=12;fontColor=#A1A1A1;" parent="d5y40cW3fXQddjaG7Fc6-13" vertex="1">
          <mxGeometry y="52" width="170" height="8" as="geometry" />
        </mxCell>
        <mxCell id="d5y40cW3fXQddjaG7Fc6-16" value="+ method(type): type" style="text;strokeColor=none;fillColor=none;align=left;verticalAlign=top;spacingLeft=4;spacingRight=4;overflow=hidden;rotatable=0;points=[[0,0.5],[1,0.5]];portConstraint=eastwest;fontFamily=urbanist;fontSource=https%3A%2F%2Ffonts.googleapis.com%2Fcss%3Ffamily%3Durbanist;fontSize=12;fontColor=#A1A1A1;" parent="d5y40cW3fXQddjaG7Fc6-13" vertex="1">
          <mxGeometry y="60" width="170" height="30" as="geometry" />
        </mxCell>
      </root>
    </mxGraphModel>
  </diagram>
</mxfile>
